<svg width="32" height="32" viewBox="35 35 90 90" fill="none" xmlns="http://www.w3.org/2000/svg">
<style>
  /* Bold "G" ring: dark ink on light browser tabs, light ink on dark tabs. */
  .ring { fill: #111516; }
  @media (prefers-color-scheme: dark) { .ring { fill: #f5f5f5; } }
</style>
<path opacity="0.4" d="M102.284 46.4455C110.06 51.8743 117.934 59.6313 120.088 70.4089C122.341 81.6843 119.962 93.5429 112.965 102.922C106.841 111.132 97.9987 117.6 87.3528 119.543C76.044 121.608 65.7242 116.306 57.8548 111.081C48.1047 104.607 44.3794 93.4357 42.9573 83.7355C41.7112 75.2357 41.5949 64.9694 47.3762 56.4964C53.5204 47.4915 64.1432 44.3738 72.727 42.6964C81.6388 40.955 93.0381 39.9901 102.284 46.4455ZM98.081 52.4087C91.4831 47.8021 82.7959 48.1519 74.137 49.844C65.7151 51.4897 57.7944 54.1928 53.4305 60.5885C49.2403 66.7297 49.0237 74.666 50.1991 82.6839C51.5214 91.7031 54.7783 100.282 61.9165 105.021C69.5322 110.078 77.7266 113.895 86.0323 112.379C94.504 110.832 101.836 105.621 107.089 98.5799C112.784 90.9465 114.783 81.2051 112.909 71.8298C111.303 63.7902 105.285 57.4382 98.081 52.4087Z" fill="#FF5656"/>
<path d="M86.7981 40.6839C96.6407 43.047 106.862 48.2057 112.603 57.9754C117.996 67.1521 121.595 78.7185 118.136 90.2248C115.132 100.22 108.114 108.179 99.5672 113.425C89.3256 119.712 77.2387 118.271 67.5954 115.719C56.9815 112.91 48.9677 105.222 44.0896 96.2775C39.7294 88.2821 37.8226 78.829 39.9845 69.5604C42.5586 58.5249 51.6318 51.4785 59.8083 46.8863C66.9935 42.8508 76.5884 38.2326 86.7981 40.6839ZM106.283 61.6379C101.929 54.2287 93.8762 49.8594 85.0783 47.7471C77.914 46.027 70.6198 49.163 63.411 53.2118C55.6881 57.5493 48.9667 63.2568 47.1138 71.2003C45.4206 78.4594 46.8646 86.1057 50.5247 92.8171C54.6913 100.457 61.2625 106.522 69.4801 108.697C78.6694 111.129 88.1666 111.88 95.7196 107.244C103.021 102.763 108.719 96.1459 111.124 88.1461C113.771 79.3386 111.153 69.9252 106.283 61.6379Z" fill="#FF5656"/>
<path class="ring" d="M111.481 72.7932C111.481 67.5157 108.401 61.7622 102.405 57.059C96.4686 52.4015 88.3549 49.3805 80.0002 49.3805C63.6942 49.3805 48.519 63.4346 48.5189 80.2327C48.5189 97.0158 62.592 110.576 79.9162 110.62C84.5109 110.502 89.0127 108.429 93.3965 104.604C97.8252 100.739 101.746 95.404 104.924 89.7169C109.193 82.0777 111.481 76.758 111.481 72.7932ZM118.794 72.7932C118.794 78.9204 115.462 85.8315 111.316 93.2519L110.991 93.8278C104.112 105.914 93.4828 117.61 80.0002 117.895L79.5046 117.892C58.5585 117.635 41.2061 101.125 41.2061 80.2327C41.2061 59.1757 59.9022 42.1057 80.0002 42.1057L80.471 42.1084C100.389 42.3312 118.794 56.6467 118.794 72.7932Z"/>
</svg>
