<svg viewBox="40 40 294 80" fill="none" xmlns="http://www.w3.org/2000/svg">
<path opacity="0.4" d="M103.197 46.445C110.973 51.8739 118.847 59.6308 121.001 70.4084C123.254 81.6839 120.876 93.5424 113.879 102.922C107.754 111.132 98.9112 117.6 88.2649 119.543C76.9556 121.608 66.6353 116.306 58.7657 111.081C49.0151 104.606 45.2897 93.4353 43.8675 83.7351C42.6214 75.2352 42.505 64.969 48.2865 56.496C54.4311 47.4911 65.0543 44.3734 73.6385 42.696C82.5506 40.9545 93.9504 39.9897 103.197 46.445ZM98.9936 52.4083C92.3953 47.8017 83.7078 48.1515 75.0485 49.8435C66.6263 51.4893 58.7052 54.1924 54.3412 60.588C50.1507 66.7292 49.9341 74.6656 51.1096 82.6835C52.4319 91.7027 55.689 100.281 62.8275 105.021C70.4435 110.078 78.6383 113.895 86.9443 112.378C95.4164 110.832 102.749 105.621 108.002 98.5794C113.697 90.9461 115.696 81.2047 113.823 71.8294C112.216 63.7898 106.197 57.4378 98.9936 52.4083Z" fill="#FF5656"/>
<path d="M87.7102 40.6834C97.5532 43.0466 107.775 48.2053 113.516 57.975C118.909 67.1517 122.509 78.7181 119.05 90.2244C116.045 100.219 109.027 108.179 100.48 113.425C90.2378 119.711 78.1504 118.271 68.5066 115.718C57.8923 112.91 49.8782 105.222 44.9999 96.277C40.6395 88.2817 38.7325 78.8286 40.8946 69.56C43.4687 58.5245 52.5424 51.4781 60.7192 46.8858C67.9047 42.8503 77.5 38.2322 87.7102 40.6834ZM107.196 61.6375C102.841 54.2283 94.7886 49.8589 85.9904 47.7467C78.8257 46.0266 71.5312 49.1626 64.322 53.2114C56.5989 57.5489 49.8771 63.2563 48.0242 71.1999C46.3309 78.459 47.775 86.1052 51.4352 92.8167C55.602 100.457 62.1735 106.522 70.3914 108.697C79.5812 111.129 89.0788 111.879 96.6321 107.244C103.934 102.762 109.632 96.1455 112.037 88.1457C114.685 79.3381 112.066 69.9248 107.196 61.6375Z" fill="#FF5656"/>
<path d="M112.394 72.7928C112.394 67.5153 109.314 61.7618 103.318 57.0585C97.3811 52.4011 89.267 49.3801 80.912 49.3801C64.6053 49.3801 49.4294 63.4342 49.4293 80.2323C49.4293 97.0154 63.503 110.576 80.828 110.619C85.4229 110.502 89.9249 108.429 94.3089 104.603C98.7377 100.739 102.659 95.4035 105.837 89.7165C110.106 82.0772 112.394 76.7576 112.394 72.7928ZM119.707 72.7928C119.707 78.92 116.376 85.8311 112.229 93.2515L111.904 93.8274C105.025 105.914 94.3952 117.609 80.912 117.895L80.4163 117.892C59.4694 117.635 42.1161 101.125 42.1161 80.2323C42.1162 59.1753 60.8131 42.1053 80.912 42.1053L81.3828 42.108C101.302 42.3308 119.707 56.6463 119.707 72.7928Z" fill="#111516"/>
<path d="M311.444 78.011C311.444 73.0697 316.068 69.889 322.348 69.889C327.943 69.889 333.31 72.6153 333.481 78.4086H329.028C328.857 75.1712 326.173 73.524 322.348 73.524C318.352 73.524 315.84 75.3416 315.84 77.8406C315.84 79.8853 317.439 81.1349 320.464 81.7596L326.23 82.8956C331.369 83.9179 333.995 86.3602 333.995 90.5064C333.995 95.3341 329.656 98.7988 322.52 98.7988C315.44 98.7988 310.645 95.2773 310.588 89.8248H315.041C315.269 93.0622 317.781 95.1637 322.634 95.1637C327.715 95.1637 329.599 93.2326 329.599 90.6768C329.599 88.6321 328 87.3825 324.974 86.7578L319.208 85.6218C314.07 84.5995 311.444 82.1572 311.444 78.011Z" fill="#111516"/>
<path d="M302.718 70.4002H306.999V98.2876H302.718V70.4002ZM302.261 65.1749V60.0063H307.456V65.1749H302.261Z" fill="#111516"/>
<path d="M276.201 78.011C276.201 73.0697 280.825 69.889 287.105 69.889C292.7 69.889 298.066 72.6153 298.238 78.4086H293.785C293.613 75.1712 290.93 73.524 287.105 73.524C283.109 73.524 280.597 75.3416 280.597 77.8406C280.597 79.8853 282.195 81.1349 285.221 81.7596L290.987 82.8956C296.125 83.9179 298.751 86.3602 298.751 90.5064C298.751 95.3341 294.413 98.7988 287.276 98.7988C280.197 98.7988 275.402 95.2773 275.345 89.8248H279.798C280.026 93.0622 282.538 95.1637 287.391 95.1637C292.472 95.1637 294.356 93.2326 294.356 90.6768C294.356 88.6321 292.757 87.3825 289.731 86.7578L283.965 85.6218C278.827 84.5995 276.201 82.1572 276.201 78.011Z" fill="#111516"/>
<path d="M246.591 84.3155C246.591 75.5119 252.129 69.889 259.893 69.889C267.201 69.889 272.682 74.66 272.682 84.1451C272.682 84.4291 272.682 85.1107 272.625 85.7354H251.044C251.273 90.62 254.299 95.1069 259.722 95.1069C263.49 95.1069 266.63 93.403 267.658 89.8248H272.168C270.912 95.8453 265.831 98.7988 259.836 98.7988C252.3 98.7988 246.591 93.4598 246.591 84.3155ZM251.102 82.2708H268.229C268 76.5911 264.518 73.5808 259.951 73.5808C255.212 73.5808 251.844 76.7047 251.102 82.2708Z" fill="#111516"/>
<path d="M223.583 98.2876H219.301V70.4002H223.411V74.6032C225.467 71.5929 228.492 69.889 232.888 69.889C239.225 69.889 242.822 74.0352 242.822 80.7373V98.2876H238.54V81.646C238.54 75.7391 235.857 73.6376 231.804 73.6376C226.551 73.6376 223.583 77.7838 223.583 82.6684V98.2876Z" fill="#111516"/>
<path d="M189.303 84.3155C189.303 75.5119 194.841 69.889 202.605 69.889C209.913 69.889 215.394 74.66 215.394 84.1451C215.394 84.4291 215.394 85.1107 215.336 85.7354H193.756C193.985 90.62 197.011 95.1069 202.434 95.1069C206.202 95.1069 209.342 93.403 210.37 89.8248H214.88C213.624 95.8453 208.543 98.7988 202.548 98.7988C195.012 98.7988 189.303 93.4598 189.303 84.3155ZM193.813 82.2708H210.941C210.712 76.5911 207.23 73.5808 202.662 73.5808C197.924 73.5808 194.556 76.7047 193.813 82.2708Z" fill="#111516"/>
<path d="M168.149 82.214V78.1246H184.934V98.2876H180.823V91.6423C178.197 96.1861 173.63 98.9123 167.065 98.9123C155.932 98.9123 148.91 90.1656 148.91 78.579C148.91 66.538 156.446 58.2456 167.578 58.2456C176.085 58.2456 183.335 63.1302 184.648 72.1041H179.739C178.654 65.97 173.344 62.335 167.635 62.335C159.472 62.335 153.763 68.9803 153.763 78.579C153.763 88.2913 159.414 94.8798 167.35 94.8798C173.744 94.8798 180.309 90.9608 180.652 82.214H168.149Z" fill="#111516"/>
</svg>
