<svg viewBox="40 40 294 80" fill="none" xmlns="http://www.w3.org/2000/svg">
<path opacity="0.4" d="M103.199 46.4455C110.975 51.8743 118.85 59.6313 121.004 70.4089C123.257 81.6843 120.879 93.5429 113.881 102.922C107.756 111.132 98.9139 117.6 88.2676 119.543C76.9583 121.608 66.638 116.306 58.7683 111.081C49.0178 104.607 45.2924 93.4357 43.8702 83.7355C42.6241 75.2357 42.5077 64.9694 48.2892 56.4964C54.4337 47.4915 65.057 44.3738 73.6411 42.6964C82.5533 40.955 93.9531 39.9901 103.199 46.4455ZM98.9963 52.4087C92.398 47.8021 83.7105 48.1519 75.0512 49.844C66.629 51.4897 58.7079 54.1928 54.3438 60.5885C50.1534 66.7297 49.9368 74.666 51.1123 82.6839C52.4346 91.7031 55.6917 100.282 62.8302 105.021C70.4462 110.078 78.6409 113.895 86.947 112.379C95.4191 110.832 102.751 105.621 108.005 98.5799C113.7 90.9465 115.699 81.2051 113.825 71.8298C112.219 63.7902 106.2 57.4382 98.9963 52.4087Z" fill="white"/>
<path opacity="0.4" d="M87.7129 40.6839C97.5559 43.047 107.778 48.2057 113.519 57.9754C118.912 67.1521 122.511 78.7185 119.052 90.2248C116.047 100.22 109.03 108.179 100.483 113.425C90.2405 119.712 78.1531 118.271 68.5093 115.719C57.895 112.91 49.8809 105.222 45.0026 96.2775C40.6422 88.2821 38.7352 78.829 40.8972 69.5604C43.4714 58.5249 52.5451 51.4785 60.7219 46.8863C67.9074 42.8508 77.5027 38.2326 87.7129 40.6839ZM107.198 61.6379C102.844 54.2287 94.7912 49.8594 85.993 47.7471C78.8284 46.027 71.5339 49.163 64.3247 53.2118C56.6016 57.5493 49.8798 63.2568 48.0269 71.2003C46.3336 78.4594 47.7776 86.1057 51.4379 92.8171C55.6047 100.457 62.1761 106.522 70.3941 108.697C79.5839 111.129 89.0815 111.88 96.6348 107.244C103.936 102.763 109.635 96.1459 112.04 88.1461C114.687 79.3386 112.068 69.9252 107.198 61.6379Z" fill="white"/>
<path d="M112.397 72.7932C112.397 67.5157 109.316 61.7622 103.321 57.059C97.3838 52.4015 89.2697 49.3805 80.9146 49.3805C64.608 49.3805 49.4321 63.4346 49.432 80.2327C49.432 97.0158 63.5057 110.576 80.8307 110.62C85.4256 110.502 89.9276 108.429 94.3116 104.604C98.7404 100.739 102.661 95.404 105.84 89.7169C110.109 82.0777 112.397 76.758 112.397 72.7932ZM119.71 72.7932C119.71 78.9204 116.378 85.8315 112.231 93.2519L111.907 93.8278C105.027 105.914 94.3978 117.61 80.9146 117.895L80.419 117.892C59.4721 117.635 42.1188 101.125 42.1188 80.2327C42.1189 59.1757 60.8157 42.1057 80.9146 42.1057L81.3855 42.1084C101.304 42.3312 119.71 56.6467 119.71 72.7932Z" fill="white"/>
<path d="M311.447 78.0114C311.447 73.0701 316.071 69.8895 322.351 69.8895C327.946 69.8895 333.312 72.6157 333.484 78.409H329.031C328.859 75.1716 326.176 73.5245 322.351 73.5245C318.355 73.5245 315.843 75.342 315.843 77.8411C315.843 79.8858 317.441 81.1353 320.467 81.7601L326.233 82.896C331.371 83.9183 333.997 86.3606 333.997 90.5068C333.997 95.3346 329.659 98.7992 322.522 98.7992C315.443 98.7992 310.648 95.2778 310.59 89.8252H315.043C315.272 93.0627 317.784 95.1642 322.636 95.1642C327.717 95.1642 329.601 93.2331 329.601 90.6772C329.601 88.6325 328.003 87.383 324.977 86.7582L319.211 85.6223C314.073 84.5999 311.447 82.1576 311.447 78.0114Z" fill="white"/>
<path d="M302.72 70.4006H307.002V98.288H302.72V70.4006ZM302.264 65.1753V60.0067H307.459V65.1753H302.264Z" fill="white"/>
<path d="M276.204 78.0114C276.204 73.0701 280.828 69.8895 287.108 69.8895C292.703 69.8895 298.069 72.6157 298.24 78.409H293.787C293.616 75.1716 290.933 73.5245 287.108 73.5245C283.111 73.5245 280.6 75.342 280.6 77.8411C280.6 79.8858 282.198 81.1353 285.224 81.7601L290.99 82.896C296.128 83.9183 298.754 86.3606 298.754 90.5068C298.754 95.3346 294.415 98.7992 287.279 98.7992C280.2 98.7992 275.404 95.2778 275.347 89.8252H279.8C280.029 93.0627 282.541 95.1642 287.393 95.1642C292.474 95.1642 294.358 93.2331 294.358 90.6772C294.358 88.6325 292.76 87.383 289.734 86.7582L283.968 85.6223C278.83 84.5999 276.204 82.1576 276.204 78.0114Z" fill="white"/>
<path d="M246.594 84.3159C246.594 75.5124 252.132 69.8895 259.896 69.8895C267.204 69.8895 272.684 74.6604 272.684 84.1455C272.684 84.4295 272.684 85.1111 272.627 85.7359H251.047C251.276 90.6204 254.301 95.1074 259.725 95.1074C263.493 95.1074 266.633 93.4035 267.66 89.8252H272.17C270.915 95.8457 265.833 98.7992 259.839 98.7992C252.303 98.7992 246.594 93.4603 246.594 84.3159ZM251.104 82.2712H268.231C268.003 76.5915 264.52 73.5813 259.953 73.5813C255.215 73.5813 251.846 76.7051 251.104 82.2712Z" fill="white"/>
<path d="M223.585 98.288H219.303V70.4006H223.414V74.6036C225.469 71.5934 228.495 69.8895 232.891 69.8895C239.228 69.8895 242.825 74.0357 242.825 80.7377V98.288H238.543V81.6465C238.543 75.7396 235.86 73.6381 231.806 73.6381C226.554 73.6381 223.585 77.7843 223.585 82.6688V98.288Z" fill="white"/>
<path d="M189.306 84.3159C189.306 75.5124 194.844 69.8895 202.608 69.8895C209.916 69.8895 215.396 74.6604 215.396 84.1455C215.396 84.4295 215.396 85.1111 215.339 85.7359H193.759C193.987 90.6204 197.013 95.1074 202.437 95.1074C206.205 95.1074 209.345 93.4035 210.372 89.8252H214.882C213.626 95.8457 208.545 98.7992 202.551 98.7992C195.015 98.7992 189.306 93.4603 189.306 84.3159ZM193.816 82.2712H210.943C210.715 76.5915 207.232 73.5813 202.665 73.5813C197.927 73.5813 194.558 76.7051 193.816 82.2712Z" fill="white"/>
<path d="M168.152 82.2144V78.125H184.936V98.288H180.826V91.6428C178.2 96.1865 173.633 98.9128 167.067 98.9128C155.935 98.9128 148.913 90.166 148.913 78.5794C148.913 66.5384 156.448 58.2461 167.581 58.2461C176.087 58.2461 183.338 63.1306 184.651 72.1046H179.741C178.657 65.9705 173.347 62.3355 167.638 62.3355C159.474 62.3355 153.765 68.9807 153.765 78.5794C153.765 88.2917 159.417 94.8802 167.353 94.8802C173.747 94.8802 180.312 90.9612 180.655 82.2144H168.152Z" fill="white"/>
</svg>
